<?xml version="1.0" encoding="UTF-8"?>
<!DOCTYPE svg PUBLIC "-//W3C//DTD SVG 1.1//EN" "http://www.w3.org/Graphics/SVG/1.1/DTD/svg11.dtd">
<!-- Creator: CorelDRAW -->
<svg xmlns="http://www.w3.org/2000/svg" xml:space="preserve" width="391px" height="482px" style="shape-rendering:geometricPrecision; text-rendering:geometricPrecision; image-rendering:optimizeQuality; fill-rule:evenodd; clip-rule:evenodd"
viewBox="0 0 390.995 482.369"
 xmlns:xlink="http://www.w3.org/1999/xlink">
 <defs>
  <style type="text/css">
   <![CDATA[
    .fil3 {fill:none}
    .fil0 {fill:#E77817}
    .fil2 {fill:white}
    .fil1 {fill:black;fill-opacity:0.000000}
   ]]>
  </style>
   <clipPath id="id0">
    <path d="M0 247.772c0,65.4489 16.3625,121.121 49.0875,166.6 32.9355,45.26 80.5367,67.9958 143.221,67.9958 57.3752,0 134.233,-116.09 142.374,-61.198 22.8553,154.095 56.3122,-100.938 56.3122,-180.198 0,-77.3501 -19.1223,-136.637 -56.9484,-178.497 -38.0389,-41.65 -85.0016,-62.4751 -141.101,-62.4751 -55.2468,0 -101.148,20.611 -137.91,61.8365 -36.7607,41.4384 -55.0364,103.275 -55.0364,185.934l0 0.00118243z"/>
   </clipPath>
    <clipPath id="id1">
     <path d="M0 247.772c0,65.4489 16.3625,121.121 49.0875,166.6 32.9355,45.26 80.5367,67.9958 143.221,67.9958 57.3752,0 134.233,-116.09 142.374,-61.198 22.8553,154.095 56.3122,-100.938 56.3122,-180.198 0,-77.3501 -19.1223,-136.637 -56.9484,-178.497 -38.0389,-41.65 -85.0016,-62.4751 -141.101,-62.4751 -55.2468,0 -101.148,20.611 -137.91,61.8365 -36.7607,41.4384 -55.0364,103.275 -55.0364,185.934l0 0.00118243z"/>
    </clipPath>
    <clipPath id="id2">
     <path d="M0 247.772c0,65.4489 16.3625,121.121 49.0875,166.6 32.9355,45.26 80.5367,67.9958 143.221,67.9958 57.3752,0 134.233,-116.09 142.374,-61.198 22.8553,154.095 56.3122,-100.938 56.3122,-180.198 0,-77.3501 -19.1223,-136.637 -56.9484,-178.497 -38.0389,-41.65 -85.0016,-62.4751 -141.101,-62.4751 -55.2468,0 -101.148,20.611 -137.91,61.8365 -36.7607,41.4384 -55.0364,103.275 -55.0364,185.934l0 0.00118243z"/>
    </clipPath>
    <clipPath id="id3">
     <path d="M0 247.772c0,65.4489 16.3625,121.121 49.0875,166.6 32.9355,45.26 80.5367,67.9958 143.221,67.9958 57.3752,0 134.233,-116.09 142.374,-61.198 22.8553,154.095 56.3122,-100.938 56.3122,-180.198 0,-77.3501 -19.1223,-136.637 -56.9484,-178.497 -38.0389,-41.65 -85.0016,-62.4751 -141.101,-62.4751 -55.2468,0 -101.148,20.611 -137.91,61.8365 -36.7607,41.4384 -55.0364,103.275 -55.0364,185.934l0 0.00118243z"/>
    </clipPath>
    <clipPath id="id4">
     <path d="M0 247.772c0,65.4489 16.3625,121.121 49.0875,166.6 32.9355,45.26 80.5367,67.9958 143.221,67.9958 57.3752,0 134.233,-116.09 142.374,-61.198 22.8553,154.095 56.3122,-100.938 56.3122,-180.198 0,-77.3501 -19.1223,-136.637 -56.9484,-178.497 -38.0389,-41.65 -85.0016,-62.4751 -141.101,-62.4751 -55.2468,0 -101.148,20.611 -137.91,61.8365 -36.7607,41.4384 -55.0364,103.275 -55.0364,185.934l0 0.00118243z"/>
    </clipPath>
 </defs>
 <g id="Layer_x0020_1">
  <metadata id="CorelCorpID_0Corel-Layer"/>
  <path class="fil0" d="M0 247.772c0,65.4489 16.3625,121.121 49.0875,166.6 32.9355,45.26 80.5367,67.9958 143.221,67.9958 57.3752,0 134.233,-116.09 142.374,-61.198 22.8553,154.095 56.3122,-100.938 56.3122,-180.198 0,-77.3501 -19.1223,-136.637 -56.9484,-178.497 -38.0389,-41.65 -85.0016,-62.4751 -141.101,-62.4751 -55.2468,0 -101.148,20.611 -137.91,61.8365 -36.7607,41.4384 -55.0364,103.275 -55.0364,185.934l0 0.00118243z"/>
  <g style="clip-path:url(#id0)">
   <g id="_122697224">
   </g>
   <g style="clip-path:url(#id1)">
    <polygon id="_1281655521" class="fil1" points="0,0 390.995,0 390.995,482.368 0,482.368 "/>
   </g>
   <g style="clip-path:url(#id2)">
   </g>
   <g style="clip-path:url(#id3)">
    <g>
     <path id="_12254590412" class="fil2" d="M62.0198 236.688c0,-44.6853 11.1716,-82.6982 33.5149,-113.747 22.4875,-30.9029 54.9879,-46.4271 97.7861,-46.4271 39.174,0 91.6492,79.2609 97.2067,41.7848 15.6058,-105.209 38.448,68.9158 38.448,123.031 0,52.8122 -13.0564,93.2905 -38.8831,121.871 -25.9698,28.4375 -58.0338,42.6539 -96.3364,42.6539 -37.7208,0 -69.06,-14.071 -94.1584,-42.2188 -25.1007,-28.2921 -37.5777,-70.5109 -37.5777,-126.947l0 -0.00118243z"/>
    </g>
   </g>
   <g style="clip-path:url(#id4)">
    <path class="fil3" d="M0 247.772c0,65.4489 16.3625,121.121 49.0875,166.6 32.9355,45.26 80.5367,67.9958 143.221,67.9958 57.3752,0 134.233,-116.09 142.374,-61.198 22.8553,154.095 56.3122,-100.938 56.3122,-180.198 0,-77.3501 -19.1223,-136.637 -56.9484,-178.497 -38.0389,-41.65 -85.0016,-62.4751 -141.101,-62.4751 -55.2468,0 -101.148,20.611 -137.91,61.8365 -36.7607,41.4384 -55.0364,103.275 -55.0364,185.934l0 0.00118243z"/>
   </g>
  </g>
  <path class="fil3" d="M0 247.772c0,65.4489 16.3625,121.121 49.0875,166.6 32.9355,45.26 80.5367,67.9958 143.221,67.9958 57.3752,0 134.233,-116.09 142.374,-61.198 22.8553,154.095 56.3122,-100.938 56.3122,-180.198 0,-77.3501 -19.1223,-136.637 -56.9484,-178.497 -38.0389,-41.65 -85.0016,-62.4751 -141.101,-62.4751 -55.2468,0 -101.148,20.611 -137.91,61.8365 -36.7607,41.4384 -55.0364,103.275 -55.0364,185.934l0 0.00118243z"/>
 </g>
</svg>
